<svg width="24" height="24" viewBox="0 0 24 24" fill="none" xmlns="http://www.w3.org/2000/svg">
<g clip-path="url(#clip0_8_254)">
<path fill-rule="evenodd" clip-rule="evenodd" d="M6 8.635L9.09 10.5L8.27 6.985L11 4.62L7.405 4.315L6 1L4.595 4.315L1 4.62L3.73 6.985L2.91 10.5L6 8.635Z" fill="white"/>
<path fill-rule="evenodd" clip-rule="evenodd" d="M12 20.635L15.09 22.5L14.27 18.985L17 16.62L13.405 16.315L12 13L10.595 16.315L7 16.62L9.73 18.985L8.91 22.5L12 20.635Z" fill="white"/>
<path fill-rule="evenodd" clip-rule="evenodd" d="M18 8.635L21.09 10.5L20.27 6.985L23 4.62L19.405 4.315L18 1L16.595 4.315L13 4.62L15.73 6.985L14.91 10.5L18 8.635Z" fill="white"/>
</g>
<defs>
<clipPath id="clip0_8_254">
<rect width="24" height="24" rx="5" fill="white"/>
</clipPath>
</defs>
</svg>
