<svg width="87" height="38" viewBox="0 0 87 38" fill="none" xmlns="http://www.w3.org/2000/svg">
<rect x="1" y="1" width="85" height="36" rx="4" stroke="#BDBDBD"/>
<path d="M14.0117 24V14.0469H17.4229C18.5485 14.0469 19.4053 14.2725 19.9932 14.7236C20.5811 15.1748 20.875 15.847 20.875 16.7402C20.875 17.196 20.752 17.6061 20.5059 17.9707C20.2598 18.3353 19.8997 18.6178 19.4258 18.8184C19.9635 18.9642 20.3783 19.2399 20.6699 19.6455C20.9661 20.0465 21.1143 20.5296 21.1143 21.0947C21.1143 22.029 20.8135 22.7467 20.2119 23.248C19.6149 23.7493 18.7581 24 17.6416 24H14.0117ZM15.7412 19.5088V22.6191H17.6621C18.2044 22.6191 18.6283 22.4847 18.9336 22.2158C19.2389 21.9469 19.3916 21.5732 19.3916 21.0947C19.3916 20.0602 18.863 19.5316 17.8057 19.5088H15.7412ZM15.7412 18.2373H17.4365C17.9743 18.2373 18.3936 18.1165 18.6943 17.875C18.9997 17.6289 19.1523 17.2826 19.1523 16.8359C19.1523 16.3438 19.0111 15.9883 18.7285 15.7695C18.4505 15.5508 18.0153 15.4414 17.4229 15.4414H15.7412V18.2373ZM31.374 14.0469V20.6982C31.374 21.7555 31.0345 22.5941 30.3555 23.2139C29.681 23.8291 28.7809 24.1367 27.6553 24.1367C26.516 24.1367 25.6113 23.8337 24.9414 23.2275C24.2715 22.6169 23.9365 21.7715 23.9365 20.6914V14.0469H25.6592V20.7051C25.6592 21.3704 25.8278 21.8786 26.165 22.2295C26.5023 22.5804 26.999 22.7559 27.6553 22.7559C28.986 22.7559 29.6514 22.054 29.6514 20.6504V14.0469H31.374ZM41.668 15.4414H38.5645V24H36.8486V15.4414H33.7725V14.0469H41.668V15.4414ZM51.5312 15.4414H48.4277V24H46.7119V15.4414H43.6357V14.0469H51.5312V15.4414ZM61.8457 19.2832C61.8457 20.2585 61.6771 21.1152 61.3398 21.8535C61.0026 22.5872 60.5195 23.1523 59.8906 23.5488C59.2663 23.9408 58.5462 24.1367 57.7305 24.1367C56.9238 24.1367 56.2038 23.9408 55.5703 23.5488C54.9414 23.1523 54.4538 22.5895 54.1074 21.8604C53.7656 21.1312 53.5924 20.2904 53.5879 19.3379V18.7773C53.5879 17.8066 53.7588 16.9499 54.1006 16.207C54.4469 15.4642 54.9323 14.8968 55.5566 14.5049C56.1855 14.1084 56.9056 13.9102 57.7168 13.9102C58.528 13.9102 59.2458 14.1061 59.8701 14.498C60.499 14.8854 60.9844 15.446 61.3262 16.1797C61.668 16.9089 61.8411 17.7588 61.8457 18.7295V19.2832ZM60.1162 18.7637C60.1162 17.6608 59.9066 16.8154 59.4873 16.2275C59.0726 15.6396 58.4824 15.3457 57.7168 15.3457C56.9694 15.3457 56.3838 15.6396 55.96 16.2275C55.5407 16.8109 55.3265 17.638 55.3174 18.709V19.2832C55.3174 20.377 55.5293 21.2223 55.9531 21.8193C56.3815 22.4163 56.974 22.7148 57.7305 22.7148C58.4961 22.7148 59.084 22.4232 59.4941 21.8398C59.9089 21.2565 60.1162 20.4043 60.1162 19.2832V18.7637ZM72.7139 24H70.9844L66.5479 16.9385V24H64.8184V14.0469H66.5479L70.998 21.1357V14.0469H72.7139V24Z" fill="white"/>
</svg>
